<?xml version="1.0" encoding="UTF-8"?>
<svg id="Capa_1" data-name="Capa 1" xmlns="http://www.w3.org/2000/svg" viewBox="0 0 576.35 741">
  <defs>
    <style>
      .cls-1, .cls-2 {
        fill: #fff;
      }

      .cls-2, .cls-3 {
        fill-rule: evenodd;
      }

      .cls-3 {
        fill: none;
        stroke: #fff;
        stroke-linejoin: round;
        stroke-width: .17px;
      }
    </style>
  </defs>
  <path class="cls-2" d="m403.96,318.4v193.29c0,65.26-53.84,118.66-119.65,118.66h-1.87c-65.81,0-119.65-53.4-119.65-118.66v-193.29h-18.67v-31.46h69.12v31.46h-18.69v193.29c0,43.71,32.89,80.17,75.34,86.26v-179.45h-51.8v-31.46h51.8v-10.54h26.94v10.54h51.8v31.46h-51.8v179.46c42.47-6.07,75.38-42.54,75.38-86.27v-193.29h-18.74v-31.46h69.12v31.46h-18.62Zm108.41-146.02c-4.18.52-8.54.6-13.08.12v356.01c0,109.74-90.54,199.53-201.2,199.53h-32.58c-110.66,0-201.2-89.79-201.2-199.53V171.67c-4.59-.55-8.95-1.65-13.08-3.17v360c0,116.88,96.43,212.5,214.28,212.5h32.58c117.85,0,214.28-95.63,214.28-212.5V172.37h0Zm-22.52-1.92H84.6c10.4-3.91,21.47-8.65,32.92-12.97h74.42c9.01,4.92,17.87,9.96,28.08,11.63,18.37,3.19,31.05-3.43,38.95-9.58,3.25-.66,6.04-1.36,8.05-2.01,1.82,4.4,5.44,7.43,9.59,7.43l18.1.03c4.19,0,7.84-3.05,9.66-7.51h3.21c2.38.81,6,1.71,10.25,2.53,7.91,6.05,20.41,12.36,38.38,9.3,10.43-1.67,19.46-6.85,28.68-11.83h72.37c11.31,4.26,22.27,8.98,32.58,12.97Z"/>
  <path class="cls-2" d="m269.64,334.03l10.2,10.12v-91.86h14.96c4.3,0,7.74.41,10.32,1.2,2.6.79,4.73,2.07,6.45,3.85,3.11,3.3,5.49,7.58,7.14,12.86,1.67,5.28,2.5,11.2,2.5,17.82,0,6.27-.75,12.04-2.25,17.38-1.51,5.34-3.61,9.56-6.28,12.68-1.87,2.22-4.1,3.85-6.7,4.84-2.61.99-5.92,1.49-9.95,1.49h-9.26v19.84l10.29-10.21h9.8l-18.61,18.46,18.46,18.3h-9.8l-10.14-10.05v15.76h-6.93v-15.67l-10.05,9.97h-9.8l18.46-18.3-18.61-18.46h9.8Zm17.13-69.52v47.41h10.22c5.69,0,9.89-1.9,12.6-5.72,2.71-3.82,4.07-9.71,4.07-17.7s-1.37-14.38-4.1-18.22c-2.73-3.85-7.11-5.77-13.15-5.77h-9.64Z"/>
  <g>
    <path class="cls-2" d="m127.3,317.99c-.18,1.25-.36,2.61-.66,3.26-.36,1.18-1.26,1.72-2.69,1.77-2.03.06-17.88.05-21.77.52-6.1.71-10.83,4.62-10.83,14.64,0,6.17,2.38,12.81,10.1,14.77,4.49,1.36,9.81,1.07,20.93,1.43,2.45.12,3.7.41,4.18,2.26l.72,2.73c.18.41,2.09.36,2.33,0,0-.95-.18-4.33-.18-7.12,0-3.5.18-6.64.18-7.89-.3-.3-2.03-.42-2.33-.06-.24,1.48-.36,2.61-.6,3.5-.48,2.25-1.44,2.61-3.95,2.67-5.92.29-12.02.23-16.63-.07-9.57-.66-10.58-5.64-10.58-10.15,0-7.06,3.77-10.38,7.66-10.91.96-.18,3.41-.35,4.61-.41,3.17-.06,9.09-.11,15.91-.05,1.8.06,2.57.36,3.05,1.96.18.71.3,1.78.54,3.14.3.3,2.09.3,2.33-.06,0-1.6-.18-4.98-.18-7.65,0-2.73.12-6.99.12-8.18-.18-.36-2.03-.47-2.27-.12h0Zm.14,44.66c-.24,2.25-.66,3.62-1.02,4.74-.66,1.54-2.03,1.84-3.05,1.84-12.68-.19-21.41-.31-24.82-.61-1.79-.11-2.63-.83-3.11-2.19-.3-.95-.48-2.2-.65-3.62-.3-.24-2.21-.3-2.39,0,0,1.3.18,3.79.17,8.06,0,3.62-.18,6.34-.18,8.01.36.3,1.97.42,2.39.12.24-1.66.36-2.96.66-3.85.42-1.72,1.31-2.37,3.23-2.49,3.47-.23,16.09-.17,22.43-.11.06,0,.12.24,0,.3-5.45,4.33-24.11,18.97-28.9,22.34.12.59.18,4.03.06,4.68,2.03-.06,5.56-.11,8.38-.11,14.11.18,18.18.13,22.84.49,1.73.18,2.69.53,3.23,2.2.24.65.48,1.66.71,2.79.36.3,2.03.36,2.33,0,0-.83-.18-4.74-.17-6.94,0-4.39.18-7.23.18-8.72-.3-.3-2.03-.3-2.33,0-.24,1.72-.54,3.14-.84,4.33-.48,1.89-1.26,2.25-3.11,2.37-4.6.24-13.45.17-21.89.17-.12,0-.18-.12-.12-.24,3.77-3.14,17.47-14.35,24.89-20.09,1.97-1.54,2.45-1.78,3.23-2.01v-2.73c0-3.8.18-6.88.19-8.72-.3-.3-2.03-.36-2.33,0h0Zm.07,47.5c-.24,1.78-.42,2.91-.72,3.97-.36,1.24-1.02,1.42-2.63,1.54-2.81.18-6.22.12-11.24.12-9.81,0-13.33.05-15.07-.19-1.2-.18-2.03-.41-2.51-2.31-.18-.89-.3-1.72-.48-3.33-.24-.29-2.21-.29-2.39.06,0,1.07.18,5.45.17,8.96,0,3.14-.19,7.41-.19,8.72.24.29,2.15.47,2.39.18.24-1.72.48-3.08.66-3.97.47-1.9,1.31-2.19,3.17-2.25,2.09-.11,7.71-.17,13.27-.17,5.26,0,9.57-.05,12.14.13,1.8.12,2.51.36,2.87,1.78.24.83.36,1.9.54,3.5.42.29,1.98.24,2.33,0,0-1.6-.18-5.28-.17-8.48,0-3.14.18-7,.19-8.18-.3-.24-2.03-.36-2.33-.06h0Zm-.29,19.93c-.24,1.42-.42,2.2-.72,3.09-.66,2.01-1.79,2.67-5.44,4.09-4.37,1.66-13.16,4.97-21.24,7.81-3.05,1.07-5.8,1.96-8.07,2.55.18,1.07.18,3.32,0,4.39,1.79.59,5.38,2.02,9.56,3.62,7.53,3.09,15.96,6.36,20.27,8.31,2.87,1.24,4.18,1.72,4.9,3.62.3.89.48,1.72.72,2.85.3.36,2.15.36,2.33,0,0-1.72-.18-3.14-.17-6.7,0-4.57.18-7.24.18-7.83-.24-.36-2.03-.54-2.33-.24-.24,1.54-.48,2.61-.66,3.56-.42,1.72-1.14,2.19-3.53,1.48-5.44-1.66-19.19-7.07-23.62-8.97-.12-.06-.18-.24-.12-.36,3.05-1.24,20.15-7.4,25.12-9.12.96-.3,1.79-.23,2.09.89.24.83.48,2.14.72,3.38.24.41,2.15.29,2.33-.12,0-.59-.18-4.8-.17-8.48,0-2.55.18-6.05.18-7.53-.18-.42-2.09-.6-2.33-.3h0Zm.37,42.94c-.24,1.6-.42,2.73-.66,3.56-.42,1.36-.96,1.6-2.93,1.72-1.08.06-6.16.05-11.42.05-6.64,0-12.92.05-13.94-.07-1.91-.12-2.69-.54-3.04-1.96-.3-1.12-.48-3.03-.71-5.11-.36-.29-2.15-.24-2.39.06,0,2.49.18,6.52.17,10.5,0,4.33-.24,10.08-.25,16.37,0,3.03.47,3.5,1.19,3.8,2.15,1.07,6.63,2.32,8.61,2.61.42-.29.96-2.01.9-2.49-1.43-.65-3.88-1.78-5.14-2.73-1.79-1.24-2.27-2.13-2.27-3.74,0-1.3-.06-8.83.3-10.02.3-.77,1.44-1.37,2.39-1.37,2.39-.12,7.06-.12,10.94-.11.24,0,.48.18.48.36,0,2.73.06,6.64-.18,8.6-.12.83-.54,1.43-1.44,1.66-.78.3-1.32.3-2.75.59-.36.36-.3,2.43,0,2.79,1.86-.06,3.83-.12,5.86-.11,2.27,0,4.54.3,5.92.42.36-.29.48-2.13.24-2.73-.96-.18-1.91-.42-2.63-.66-.9-.3-1.43-.77-1.55-1.66-.24-2.37-.18-5.81-.18-8.9,0-.18.3-.36.42-.36,4.01,0,7.54.06,11.66.07.36,0,1.2.36,1.31.83.06.53.06,8.3,0,9.19-.12,1.66-.66,2.25-2.15,2.73-1.02.3-1.85.59-3.53.65-.24.29-.3,2.31.12,2.67,2.57.06,6.88.6,8.55,1.01.12,0,.3-.18.36-.3-.12-1.42-.18-4.57-.18-6.88v-11.98c0-3.38.19-7.3.19-8.9-.3-.36-1.91-.48-2.27-.18h0Zm-.34,36.83c-.18,1.36-.36,2.49-.6,3.5-.42,1.6-1.02,1.95-2.81,2.01-1.37.06-5.38.06-13.4.05-3.35,0-10.94-.06-12.13-.18-2.33-.12-2.93-.71-3.23-2.13-.18-.89-.36-1.84-.48-3.21-.36-.36-1.97-.36-2.39,0,0,1.36.18,4.21.17,8.12,0,4.8-.18,7.35-.18,8.72.24.36,2.09.47,2.39.18.18-1.6.3-2.67.54-3.61.3-1.54.95-2.02,2.57-2.14,1.56-.12,6.76-.12,10.05-.11.12,0,.36.18.36.24,0,.89,0,3.68-.12,4.45-.06.47-.3,1.13-.78,1.48-3.35,2.25-8.44,5.51-11.25,7.76-1.38,1.18-2.1,2.13-2.63,3.02-1.26,2.43-1.26,7.47-1.26,10.26.12.47,2.15.77,2.33.47.72-4.21.96-4.92,3.29-7.17,3.17-2.9,8.86-7.29,12.15-9.36.12-.06.42,0,.48.12,1.73,3.74,4.78,6.7,9.68,6.71,5.09,0,9.4-4.03,9.4-11.08,0-2.19-.06-5.58-.06-10.44,0-2.01.18-6.17.19-7.47-.18-.36-1.91-.47-2.27-.18h0Zm-.43,14.05c0,6.34-3.23,9.01-8.83,9.01-3.04,0-5.3-1.55-6.32-3.5-.41-.77-.71-2.43-.71-8.07,0-.18.18-.3.3-.3,4.11,0,12.04,0,14.24.13.3,0,.83.3.95.47.24.65.36,1.9.36,2.25h0Zm-22.25,27.98c-3.31,1.78-5.6,3.48-6.72,5.87-.89,1.68-1.02,3.88-.61,5.98.48,2.51,2.58,5.79,7.04,4.94,3.64-.69,4.8-3.21,6.8-9.2,2.03-6.18,4.12-10.2,9.64-11.25,6.52-1.24,11.18,3.31,12.45,9.89.86,4.43.52,7.09.72,9.71-2.02-.04-5.9.33-8.83.65-.44-.1-.79-1.9-.49-2.26,3.04-.94,4.83-1.76,5.57-3.29.73-1.59.66-3.51.35-5.14-.76-3.96-4.25-5.29-6.77-4.81-3.35.64-4.48,2.36-5.63,5.24-1.06,2.68-1.84,6.21-2.67,8.54-1.31,3.63-3.35,6.31-7.58,7.12-5.64,1.07-12.02-2.67-13.7-11.35-.72-3.73-.13-7.58.17-9.21.6-.66,6.89-3.12,9.03-3.71.55.01,1.4,1.9,1.24,2.3h0Zm28.15,19.18c.34,1.77.53,2.89.59,4,.06,1.29-.51,1.67-2.01,2.29-2.61,1.05-5.86,2.06-10.62,3.64-9.31,3.08-12.63,4.24-14.35,4.56-1.19.21-2.06.24-3.12-1.41-.46-.79-.83-1.54-1.51-3-.32-.2-2.2.42-2.25.81.34,1.01,1.91,5.12,3.03,8.44,1,2.98,2.2,7.09,2.61,8.32.32.2,2.19-.23,2.33-.58-.32-1.71-.53-3.08-.64-3.98-.15-1.95.55-2.49,2.29-3.13,1.95-.77,7.26-2.59,12.54-4.33,4.99-1.65,9.06-3.06,11.55-3.69,1.74-.45,2.5-.45,3.29.78.49.71.95,1.69,1.63,3.15.49.15,1.95-.4,2.21-.73-.51-1.52-1.85-4.95-2.88-7.99-1-2.98-2.06-6.69-2.44-7.82-.36-.13-2.04.3-2.23.67h0Zm4.1,14.91c.25-.29,1.67-1.05,2.13-.98.52.87,2.77,4.99,3.68,6.53,1.7,2.86,3.05,4.76,6.24,10.12,2.67,4.49,3.69,9,2.93,13.09-.94,4.96-3.92,9.05-8.81,11.91-6.95,4.07-12.82,3.31-16.94,1.52-4.23-1.73-7.97-4.98-11.4-10.75-1.82-3.06-4.85-8.38-7.42-12.8l-.91-1.53c.29-.45,1.65-1.31,2.06-1.21,1.23,1.83,2.04,2.73,2.8,3.53.84.82,1.72,1.13,3.48.24,3.28-1.71,7.06-4,11.39-6.53,3.09-1.81,9.14-5.29,10.99-6.5,1.5-1.09,1.52-1.99,1.04-3.5-.24-.75-.63-1.76-1.24-3.13h0Zm-18.44,24.43c.66-.52,6.63-4.02,10.91-6.52,4.17-2.44,11.23-6.57,12.21-7.02.21-.12.8-.06.99.04.59.41,1.22,1.35,1.8,2.32,1.98,3.32,3.14,6.56,3.04,9.65-.1,5.43-3.17,9.84-8.37,12.89-5.4,3.17-9.78,3.52-13.42,2.42-3.56-1.09-5.45-3.21-6.91-5.66-1.13-1.89-2.04-4.25-1.81-5.83.07-.94.97-1.87,1.56-2.29h0Zm11.56,26.32c-.38.04-1.67,1.27-1.72,1.65.79.81,2.28,2.1,4.98,4.87,2.78,2.86,4.81,5.21,5.64,6.06.42,0,1.8-1.14,1.85-1.51-.66-.85-1.44-1.92-1.85-2.6-.9-1.52-.77-1.99.05-2.76.86-.83,4.74-2.39,8.06-3.83.08-.08.68-.07.89.14.5.43.74.68,3.4,3.42,1.54,1.58,3.44,3.54,4.15,4.35.08.09.25.43.11.72-1.02,2.29-2.87,6.2-4.14,8.48-.22.37-.86.83-1.57.52-.84-.43-1.84-1.21-2.88-2.03-.43,0-1.67,1.27-1.72,1.65.83.86,3.65,3.51,6.14,6.07,2.36,2.43,4.27,4.57,5.3,5.72.38-.04,1.88-1.14,1.81-1.56-2.72-3.66-2.8-4.25-1.06-8.54,2.22-5.32,10.16-22.05,11.74-25.21.56-1.11,1.13-2.15,1.79-3.19-.25-.17-.71-.64-1.7-1.67-.79-.81-1.33-1.37-1.49-1.62-.81.53-2.31,1.22-3.62,1.81-3.71,1.73-18.52,7.88-24.86,10.32-4.94,1.84-5.78,1.48-9.28-1.27h0Zm33.36-5.26c-1.01,2.36-4.12,8.63-5.57,11.58-.16.24-.51.32-.63.19-.58-.52-1.74-1.71-2.78-2.78-1.2-1.24-2.82-2.91-3.24-3.42-.08-.17,0-.34.13-.45,3.37-1.65,8.81-3.89,11.79-5.32.18-.01.26.16.31.2h0Zm14.12,8.03c.08-.37.95-1.72,1.39-1.87.88.51,4.86,3.05,6.4,3.95,2.88,1.69,4.99,2.72,10.39,5.88,4.53,2.65,7.61,6.11,8.94,10.06,1.59,4.79.97,9.8-1.92,14.65-4.11,6.89-9.62,9.04-14.1,9.44-4.54.51-9.4-.54-15.22-3.95-3.09-1.81-8.33-5.02-12.73-7.66l-1.55-.91c.04-.53.81-1.94,1.22-2.04,1.97,1.01,3.12,1.41,4.16,1.75,1.13.32,2.05.17,3.16-1.46,2.04-3.07,4.24-6.89,6.79-11.18,1.82-3.06,5.44-9.01,6.46-10.96.78-1.67.36-2.47-.8-3.56-.58-.54-1.41-1.24-2.61-2.15h0Zm-4.25,30.23c-.31.64-.64,1.9-.24,2.75.56,1.5,2.51,3.12,4.42,4.24,2.47,1.45,5.16,2.4,8.81,1.65,3.73-.78,7.38-3.18,10.58-8.55,3.07-5.16,3.61-10.49,1.05-15.3-1.41-2.75-4.01-5.03-7.37-7-.98-.57-1.98-1.1-2.7-1.17-.22.01-.77.24-.89.44-.65.86-4.81,7.86-7.27,11.99-2.52,4.24-6.05,10.16-6.38,10.94h0Zm55.41,15.51c.7.4,1.39.62,2.44.86,1.8.42,4.26.68,6.75.03,3.31-.76,7.53-3.3,8.8-8.72.91-3.86-.18-6.84-1.84-8.92-1.94-2.46-5.42-3.63-7.51-4.11-3.61-.83-6.36-1.4-10.32-2.32-2.8-.65-6.37-1.65-7.13-1.83-.34.16-.83,1.7-.69,2.15,1.2.4,2.09.79,2.81,1.14,1.78.78,2.08,1.33,1.71,3.44-.39,1.92-.71,3.31-2.77,12.09-1.09,4.62-2.48,10.33-3.03,12.39-.5,1.65-.84,2.79-2.44,2.84-.81.06-2.12-.12-3.5-.26-.3.23-.69,1.91-.47,2.27,1.28.3,5.4,1.06,8.14,1.69,2.33.54,6.83,1.76,8.7,2.19.36-.22.87-1.87.66-2.29-1.71-.57-2.95-1.04-3.89-1.5-1.46-.83-1.62-1.47-1.47-2.9.32-1.87.8-4.2,2.91-13.2,2.51-10.72,2.98-12.42,3.4-13.72.14-.33.45-.63.66-.69.42-.21,2.17.14,2.7.26,6.23,1.44,8.34,5.56,7.08,10.91-.76,3.22-2.4,5.52-5.35,6.3-1.36.29-2.59.31-4.28-.08-.59-.14-1.56-.42-2.12-.67-.08.1-.31.29-.35.71-.04.42.11,1.61.41,1.92h0Zm18.34-16.57c-.3-.36-.17-2.08.19-2.25,1.31,0,5.5.2,7.53.21,4.91.02,8.31-.03,10.52-.02,7.12.03,11.16,4.31,11.14,9.36-.02,4.86-3.02,7.87-6.8,9.58-.12.06-.18.36-.12.47,2.08,3.27,6.48,8.92,9.4,12.08,2.26,2.32,2.98,2.56,7.22,3.29.3.18,0,2.19-.49,2.31-2.81-.01-7.89-.03-10.34-1.29-.9-.54-1.85-1.25-3.04-2.62-2.26-2.79-5.53-7.85-7.79-11.18-.35-.47-1.01-.72-1.49-.78-.78-.12-3.59-.13-4.48-.14-.06,0-.24.24-.24.36-.01,3.26-.03,8.42.08,9.96.11,1.6.59,2.26,2.14,2.56.96.24,2.03.36,3.64.55.3.3.17,2.14-.19,2.37-1.38,0-3.95-.19-8.79-.21-3.95-.02-6.82.15-8.19.15-.36-.41-.35-2.02,0-2.37,1.38-.11,2.33-.29,3.24-.46,1.43-.29,2.03-.88,2.16-3.19.13-1.19.21-8.72.23-12.04.03-7.95.05-11.92,0-13.28-.06-1.78-.41-2.38-2.02-2.8-1.02-.24-2.15-.42-3.53-.61h0Zm14.17.47c-.36,0-1.61.11-2.27.35-.18.11-.48.64-.48.94-.13,2.19-.16,10.05-.18,14.13,0,.12.12.3.3.3,5.68.02,7.36-.27,8.14-.67,1.98-1,3.54-3.24,3.55-6.25.02-5.55-2.66-8.76-9.06-8.78h0Zm26.33.12c1.79.24,2.93.42,4,.73,1.26.36,1.43,1.01,1.54,2.62.17,2.79.1,6.17.08,11.15-.04,9.73,0,13.23-.24,14.94-.19,1.19-.43,2.02-2.34,2.48-.9.18-1.74.29-3.35.46-.3.24-.31,2.19.05,2.37,1.07,0,5.5-.16,9.03-.14,3.17.02,7.47.21,8.79.21.3-.23.49-2.13.19-2.37-1.74-.24-3.11-.49-4.01-.67-1.91-.48-2.21-1.31-2.26-3.15-.11-2.08-.15-7.65-.13-13.16.02-5.22-.02-9.49.17-12.04.13-1.78.37-2.49,1.8-2.84.84-.23,1.91-.35,3.53-.52.3-.41.24-1.96,0-2.31-1.62,0-5.32.16-8.55.15-3.17-.02-7.05-.21-8.25-.21-.24.3-.37,2.02-.07,2.31h0Zm13.11,1.86c-.34-.18-.52-2.08-.14-2.33,1.47-.28,4.97-.76,7.49-1.24,3.64-.7,7.78-1.66,8.37-1.77.44.1.92,1.94.56,2.25-1.19.47-2.44.95-3.22,1.33-1.06.5-.96,1.33-.49,2.21,2.64,4.51,11.96,20.01,13.77,22.75.13.03.29-.06.33-.19,1.05-4.66,3.8-19.08,4.42-24.69.25-2.46-.35-3.07-2.13-3.16-.98,0-2.08-.03-3.65.03-.35-.24-.51-2.02-.2-2.32.59-.11,3.26-.44,7.79-1.3,3.52-.67,4.9-1.11,6.6-1.43.39.11.73,1.91.44,2.27-1.07.44-1.86.77-2.69,1.24-1.74,1.05-1.97,2.43-2.66,5.46-1.13,4.56-2.77,13.39-4.41,21.31-.8,4.38-1.53,8.14-1.78,10-1.09.03-3.32.45-4.35.83-1.01-2.1-2.41-4.62-4.05-7.38-4.34-7.33-9.28-15.27-11.75-19.21-2.09-3.28-2.96-4.27-5.08-4.53-.94-.12-1.73-.15-3.19-.11h0Zm42.19,26.1c-.11.37.57,2.01.9,2.2,1.05-.43,2.81-1.33,6.41-2.79,3.71-1.5,6.65-2.51,7.76-2.96.16-.39-.41-2.08-.74-2.26-1.04.3-2.33.63-3.12.75-1.76.27-2.14-.02-2.57-1.07-.45-1.1-.48-5.25-.61-8.85-.05-.11.18-.65.46-.76.58-.3.92-.44,4.46-1.87,2.05-.83,4.6-1.86,5.61-2.21.11-.04.49-.07.71.16,1.77,1.79,4.74,4.93,6.42,6.95.27.34.45,1.1-.1,1.64-.72.61-1.81,1.25-2.96,1.9-.16.39.57,2.01.91,2.19,1.11-.45,4.63-2.07,7.96-3.42,3.15-1.28,5.86-2.25,7.32-2.77.11-.36-.37-2.16-.8-2.24-4.44,1.16-5.01,1.01-8.39-2.17-4.17-4.01-16.91-17.51-19.29-20.13-.84-.93-1.6-1.84-2.33-2.82-.25.17-.86.42-2.19.96-1.06.43-1.77.72-2.07.77.2.95.29,2.58.36,4.01.25,4.05.55,19.97.49,26.72-.1,5.23-.74,5.88-4.61,8.08h0Zm7.39-32.68c1.84,1.8,6.56,6.98,8.79,9.41.16.24.11.59-.06.65-.7.35-2.24.98-3.63,1.54-1.61.65-3.77,1.53-4.4,1.72-.19.01-.31-.13-.38-.29-.3-3.71-.38-9.55-.64-12.82.06-.18.25-.19.3-.21h0Zm13.29-10.05c-.31-.22-1.21-1.55-1.18-2.02.82-.59,4.75-3.2,6.21-4.24,2.71-1.95,4.49-3.45,9.57-7.11,4.26-3.06,8.68-4.49,12.86-4.13,5.06.46,9.45,3.02,12.79,7.57,4.74,6.48,4.53,12.35,3.12,16.59-1.33,4.33-4.25,8.33-9.71,12.27-2.9,2.09-7.96,5.58-12.15,8.53l-1.45,1.04c-.48-.24-1.47-1.5-1.41-1.92,1.72-1.38,2.55-2.27,3.28-3.09.74-.9.98-1.8-.09-3.45-2.03-3.08-4.68-6.6-7.63-10.63-2.11-2.88-6.17-8.53-7.57-10.24-1.23-1.38-2.14-1.31-3.61-.69-.73.31-1.71.79-3.02,1.52h0Zm26.27,15.9c-.59-.6-4.66-6.17-7.58-10.16-2.85-3.89-7.66-10.46-8.2-11.39-.14-.2-.13-.79-.06-.99.35-.62,1.24-1.33,2.16-2,3.15-2.26,6.29-3.72,9.41-3.91,5.46-.41,10.18,2.2,13.73,7.05,3.69,5.04,4.46,9.32,3.7,13.02-.75,3.62-2.71,5.69-5.03,7.36-1.79,1.29-4.07,2.42-5.68,2.33-.94.02-1.97-.78-2.44-1.32h0Zm26.05-13.89c.07.37,1.44,1.53,1.82,1.54.74-.86,1.88-2.46,4.4-5.4,2.6-3.03,4.75-5.25,5.53-6.16-.03-.42-1.32-1.66-1.71-1.68-.79.74-1.78,1.62-2.42,2.08-1.44,1.04-1.92.96-2.78.23-.91-.77-2.86-4.45-4.64-7.58-.09-.08-.13-.66.06-.89.38-.53.62-.8,3.1-3.69,1.43-1.67,3.22-3.75,3.96-4.52.08-.09.4-.28.71-.18,2.4.78,6.5,2.22,8.92,3.25.39.18.91.77.67,1.5-.35.87-1.03,1.94-1.75,3.04.03.42,1.43,1.53,1.82,1.54.78-.9,3.16-3.95,5.49-6.66,2.21-2.57,4.16-4.66,5.22-5.8-.07-.37-1.33-1.74-1.74-1.63-3.4,3.05-3.99,3.18-8.46,1.89-5.56-1.66-23.13-7.86-26.45-9.1-1.17-.45-2.27-.91-3.37-1.45-.15.27-.58.76-1.51,1.85-.74.86-1.24,1.45-1.48,1.63.62.75,1.45,2.16,2.18,3.4,2.1,3.49,9.73,17.5,12.81,23.52,2.33,4.7,2.06,5.56-.36,9.28h0Zm-8.56-32.4c2.47.76,9.06,3.22,12.17,4.36.26.14.37.47.25.61-.46.62-1.55,1.89-2.51,3.01-1.13,1.31-2.64,3.07-3.11,3.53-.16.1-.34.03-.46-.08-1.99-3.16-4.76-8.31-6.5-11.11-.03-.18.13-.28.17-.32Z"/>
    <path class="cls-2" d="m419.14,601.2c.7-1.32,1.26-2.26,1.7-2.91.89-1.31,1.62-1.87,3.41-1.37,2.11.67,8.62,3.21,11.97,4.49,4.69,1.78,8.85,3.3,12.24,4.78,1.8.81,2.1,1.69,1.98,2.84-.16,1.08-.36,2.28-1.05,4.36.17.39,1.7.9,2.23.85l.65-1.66c1.89-4.74,4.21-10.4,5.5-13.72,2.42-6.26,2.66-11.19,1.4-15.54-1.15-4.31-4.2-9.35-11.74-12.21-5.31-2.02-10.39-1.79-14.89.57-3.7,1.96-6.63,5.55-8.51,10.42-2.24,5.82-2.91,8.04-4.11,11.14-.64,1.66-2.5,5.98-2.86,6.92.23.4,1.72,1.03,2.09,1.05h0Zm30.76-.88c-.83-.19-7.3-2.65-11.94-4.41-4.52-1.72-12.17-4.62-13.14-5.11-.22-.09-.54-.59-.59-.8-.04-.72.31-1.79.72-2.84,1.39-3.6,3.23-6.52,5.73-8.37,4.35-3.3,9.74-3.66,15.38-1.52,5.87,2.23,8.86,5.4,10.26,8.92,1.36,3.44.86,6.23-.17,8.89-.79,2.05-2.08,4.23-3.48,5.03-.78.53-2.08.41-2.77.21h0Zm-16.94-33.83c-.39.25-1.99-.05-2.24-.44.19-1.59.83-5.46,1.23-8.81l1.41-11.9c.27-2.3.59-5.43.63-6.85.07-.11.27-.26.39-.25,1.61.61,5.83,1.63,8.38,1.99.37.4.08,2.4-.19,2.66-1.67-.13-2.54.06-3.58.24-1.54.3-2.15.83-2.46,2.46-.16.88-1.08,8.59-1.08,9.13.06.48.85.93,1.21.97,4.1.48,7.59.95,11.58,1.41.12.01.43-.13.45-.31.36-3.06.83-6.47.87-8.86-.02-.9-.49-1.43-1.35-1.83-.68-.32-1.61-.66-2.54-.95-.17-.61.17-2.43.56-2.68,1.35.28,3.57.83,5.83,1.1,2.02.24,3.99.41,5.83.56.26.39.07,2.46-.32,2.77-1.46.13-2,.07-2.8.27-.92.13-1.4.67-1.62,1.48-.46,1.92-.87,5.81-1.19,8.52-.02.18.19.38.43.41,3.86.45,8.49.99,10.88,1.14.95.11,2.15-.34,2.54-1.08.49-1.14,1.32-8.63,1.47-9.92.19-1.59-.18-2.53-1.82-3.98-1.14-1.09-3.44-2.49-4.79-3.3,0-.48.73-2.13,1.18-2.37,1.92.52,6.23,2.28,8.25,3.59.68.38,1.1.9.74,3.91-.74,6.24-1.65,11.93-2.16,16.23-.47,3.95-.76,7.97-1.05,10.45-.27.27-2.06.12-2.38-.21,0-2.09.05-4-.11-5.15-.19-1.46-.91-1.96-2.8-2.3-.99-.23-7.24-.91-13.83-1.67-5.23-.61-10.28-1.2-11.35-1.26-1.97-.11-2.54.06-3.11,1.37-.34.8-.65,1.9-1.07,3.46h0Zm35.26-72.66c-.36,2.61-.48,3.91-.78,4.92-.42,1.42-1.38,1.78-2.45,1.9-2.99.24-18.96.18-27.99.18-.12,0-.36-.12-.42-.3-.06-1.42-.06-4.57,0-7.83,0-1.12.48-1.84,1.67-2.37,1.14-.42,3.29-.77,5.74-.95.3-.24.36-2.37,0-2.67-3.35-.29-8.73-.83-11.19-1.42-.12.12-.42.59-.36.89.84,1.6.96,3.03.96,6.23v22c0,2.67-.3,3.91-.84,4.92-.12.18.12.95.3.95,2.81.18,7.95.83,10.59,1.3.36-.12.9-2.19.72-2.55-2.69-.95-4.73-1.72-5.92-2.43-1.38-.77-1.73-1.66-1.73-2.61v-7.06c0-.18.3-.41.54-.41,10.23,0,19.62.06,26.13.24,2.75.12,3.95.42,4.36,2.43.24,1.01.42,2.67.66,4.5.3.24,2.09.3,2.39,0-.06-1.42-.18-4.44-.18-9.43s.12-8.48.18-10.14c-.24-.36-2.03-.53-2.39-.3h0Zm.37-5.99c-.6-4.39-.96-5.22-5.8-7.29-6.28-2.61-21.25-8.36-25.13-9.67-1.36-.47-2.92-1.01-3.88-1.18.06-.3.06-1.07.06-2.2,0-1.42,0-2.08-.06-2.37,1.2-.29,2.33-.65,3.52-1.07,3.34-1.19,20.76-7.77,26.08-10.08,4.25-1.9,4.61-2.37,5.2-6.88.24-.35,2.09-.11,2.39.12-.06,1.54-.18,4.39-.18,7.77,0,3.56.18,7.41.18,8.6-.3.24-2.09.3-2.39,0-.18-1.3-.36-2.55-.66-3.44-.3-.71-1.07-.83-1.49-.71-2.51.77-6.58,2.32-8.91,3.26-.3.12-.42.47-.42.59-.06,1.07-.06,3.8-.06,5.99,0,3.79,0,4.15.06,4.8,0,.3.42.72.54.72,3.41,1.24,7.3,2.79,8.49,2.79s1.55-.24,1.97-1.96c.18-.77.36-2.08.48-3.14.3-.24,2.09-.12,2.39.18,0,1.18-.18,4.27-.18,8.24s.18,5.81.18,6.94c-.3.24-2.09.24-2.39,0h0Zm-27.71-19.16c0,.06-.06.24.08.36,3.15,1.01,8.63,3.14,12.21,4.27.17,0,.35-.06.41-.24.06-.65.06-2.97.06-4.69,0-1.48,0-3.14-.06-3.91,0-.18-.3-.36-.59-.3-3.11,1.13-9.73,3.5-12.11,4.51h0Zm2.66-55.45c.42-.06.18-2.14-.18-2.43-2.81-.06-7.3-.53-9.69-.89-.18,2.73-1.26,6.76-1.26,12.39,0,4.93,1.02,8.78,2.75,11.98,3.59,6.52,10.17,9.55,16.68,9.55,12.26,0,19.73-7.35,19.73-20.93,0-3.62-1.02-7.83-1.67-9.49-1.02-1.43-5.98-4.15-8.25-4.63-.54.18-1.32,1.48-1.26,1.96,2.81,1.72,5.2,3.44,6.22,4.8.6.89,1.67,2.91,1.67,6.17,0,10.85-8.85,15.42-16.98,15.42-9.75,0-16.09-4.45-16.09-12.87,0-2.73.36-5.4,1.2-7.23,1.2-2.43,2.27-3.15,7.12-3.8h0Zm-7.82-9.31c.24-2.25.66-3.62,1.02-4.74.66-1.54,2.03-1.84,3.05-1.84,12.68.18,21.41.3,24.82.59,1.79.12,2.63.83,3.11,2.19.3.95.48,2.2.66,3.62.3.24,2.21.3,2.39,0,0-1.3-.18-3.79-.18-8.06,0-3.62.18-6.34.18-8-.36-.3-1.97-.42-2.39-.12-.24,1.66-.36,2.96-.66,3.86-.42,1.72-1.32,2.37-3.23,2.49-3.47.24-16.09.18-22.43.12-.06,0-.12-.24,0-.3,5.44-4.33,24.1-18.98,28.89-22.36-.12-.59-.18-4.03-.06-4.68-2.03.06-5.56.12-8.37.12-14.11-.18-18.18-.12-22.84-.47-1.73-.18-2.69-.53-3.23-2.2-.24-.65-.48-1.66-.72-2.79-.36-.3-2.03-.36-2.33,0,0,.83.18,4.74.18,6.94,0,4.39-.18,7.24-.18,8.72.3.3,2.03.3,2.33,0,.24-1.72.54-3.14.84-4.33.48-1.9,1.26-2.26,3.11-2.37,4.61-.24,13.45-.18,21.89-.18.12,0,.18.12.12.24-3.77,3.14-17.46,14.35-24.88,20.1-1.97,1.54-2.45,1.78-3.23,2.02v2.73c0,3.79-.18,6.88-.18,8.72.3.3,2.03.36,2.33,0h0Zm32.84-44.18c.3.24,2.09.24,2.39,0,0-1.12-.18-3.08-.18-6.94s.18-7.06.18-8.25c-.3-.3-2.09-.41-2.39-.18-.12,1.07-.3,2.37-.48,3.14-.42,1.72-.83,1.96-1.97,1.96-1.2,0-5.08-1.54-8.49-2.79-.12,0-.54-.42-.54-.71-.06-.65-.06-1.01-.06-4.8,0-2.2,0-4.92.06-5.99,0-.12.12-.48.42-.6,2.33-.95,6.4-2.49,8.91-3.26.42-.12,1.2,0,1.49.71.3.89.48,2.14.66,3.44.3.3,2.09.24,2.39,0,0-1.19-.18-5.04-.18-8.6s.12-6.23.18-7.77c-.3-.24-2.15-.47-2.39-.12-.6,4.51-.96,4.98-5.2,6.88-5.32,2.31-22.74,8.9-26.08,10.08-1.18.42-2.32.77-3.52,1.07.06.3.06.95.06,2.37,0,1.13,0,1.9-.06,2.19.96.18,2.51.71,3.88,1.19,3.88,1.3,18.85,7.06,25.13,9.67,4.84,2.07,5.2,2.91,5.8,7.29h0Zm-27.71-19.15c2.38-1.01,9-3.38,12.11-4.51.29-.06.59.12.59.3.06.77.06,2.43.06,3.91,0,1.72,0,4.03-.06,4.69-.06.18-.24.24-.41.24-3.58-1.13-9.06-3.26-12.21-4.27-.14-.12-.08-.3-.08-.36Z"/>
  </g>
  <path class="cls-2" d="m109.26,191.93c-2.31,1.38-6.12,6.06-6.16,9.44,0,.91.18,1.52.48,2.17.13.04.39.08.7.04.87-.08,3.19-1.95,3.36-2.34-.31-.52-.7-1.47-.7-2.38,0-2.38,2.27-4.72,4.02-6.54-.26-.18-1.44-.43-1.7-.39h0Zm-7.25.04c.22-.04,1.4.17,1.66.39-1.75,1.78-3.71,4.11-3.75,6.49,0,.91.35,1.86.69,2.38-.17.39-2.53,2.25-3.36,2.34-.31.05-.61,0-.7-.04-.35-.65-.48-1.26-.48-2.17.05-3.38,3.62-8.01,5.94-9.4h0Zm359.32,11.6c2.31-1.43,6.11-6.06,6.16-9.48,0-.91-.17-1.51-.48-2.12-.13-.04-.39-.09-.7-.04-.87.04-3.19,1.95-3.36,2.29.31.56.7,1.52.7,2.39,0,2.42-2.23,4.76-3.97,6.54.26.17,1.4.48,1.66.43h0Zm7.25-.08c-.22.08-1.4-.17-1.61-.35,1.7-1.82,3.67-4.11,3.71-6.54,0-.87-.35-1.82-.7-2.39.17-.34,2.53-2.25,3.36-2.29.31-.04.61,0,.7.04.35.61.48,1.21.48,2.12-.04,3.42-3.62,8.01-5.94,9.4h0Zm-354.48-6.5c.79.13,1.44.18,2.18.39,1.44.39,1.79,1.3,2.27,3.99.57,3.12,1.7,10.01,2.57,15.89l.7,5.24c.13,0,.61-.04,1.53-.04.83,0,1.4.04,1.57.04.74-1.38,2.18-3.99,3.76-6.58,3.41-5.68,6.76-11.78,8.73-14.9,1.31-2.08,1.83-2.82,3.32-3.42.57-.26,1.44-.43,2.45-.61.31-.22.35-1.47.26-1.73-1.27,0-2.18.13-5.06.13-3.41,0-5.11-.13-5.81-.13-.35.26-.48,1.3-.35,1.73.96.18,1.7.26,2.4.43,1.27.3,1.4.73.61,2.51-1.57,3.33-7.77,14.33-9.69,17.45-.09.13-.22.09-.26,0-.44-2.17-2.4-13.82-3.01-18.54-.09-.6.04-1.12.87-1.34.61-.18,1.4-.3,2.57-.48.26-.22.39-1.56.18-1.82-.66.04-2.54.17-5.98.17-1.88,0-4.1-.13-5.5-.13-.31.09-.48,1.43-.31,1.73h0Zm26.81,23.6c1.53-.13,2.4-.3,3.19-.52,1.09-.22,1.57-.91,1.88-2.34.43-1.95,2.84-16.55,2.97-18.15.09-1.43,0-1.82-.96-2.12-.61-.17-1.79-.35-2.88-.48-.22-.22.08-1.56.31-1.73,1.22,0,4.32.13,6.72.13h8.08c1.71,0,4.41,0,5.33-.22.09.05.17.3.17.39-.31,1.04-1.01,4.07-1.4,6.41-.26.17-1.75.17-1.88.04-.04-1.3-.17-2.42-.31-3.16-.22-1.04-.74-1.25-2.01-1.34-1.14-.09-5.2-.13-6.25,0-.44.08-.74.69-.78.95l-1.44,8.84c0,.17.09.26.18.26,2.14,0,4.45,0,6.07-.04.61-.04,1.22-.43,1.66-1.34.22-.48.52-1.21.79-1.95.17-.17,1.79-.17,2.05.09-.26.95-.74,2.94-1.05,4.59-.26,1.56-.44,3.21-.65,4.5-.26.26-1.66.21-1.88.04,0-.74-.13-1.69-.22-2.3-.09-.69-.52-1.17-1.14-1.21-1.4-.13-4.06-.13-5.98-.13-.04,0-.26.13-.31.3-.48,2.77-1.05,6.54-1.31,8.36-.04.69.22,1.26.74,1.39.87.22,4.59.17,7.6.17,1.13,0,2.05-.3,2.92-1.26.83-.95,1.57-2.08,2.71-3.94.26-.08,1.48.48,1.66.74-.39,1.6-1.48,3.99-2.45,5.63-.39.65-1.05,1.17-1.62,1.13-2.92.08-5.41-.13-13.76-.13-2.88,0-5.15.13-6.94.13-.26-.22-.13-1.52.17-1.74h0Zm30.79-23.6c1.01.13,2.18.26,2.79.43.87.26,1.27.61,1.14,2.03-.53,3.72-2.14,14.29-3.02,18.45-.39,1.69-.87,1.99-1.87,2.3-.48.08-1.92.34-2.8.43-.22.22-.35,1.43-.18,1.69.87,0,3.32-.09,6.07-.13,1.49,0,4.2.13,6.46.13.35-.22.44-1.48.35-1.65-1.18-.17-2.05-.3-2.75-.52-1.01-.26-1.44-.74-1.31-1.91.18-1.56.66-4.85,1.05-7.27,0-.09.17-.3.31-.3.7.04,1.97,0,2.58.04.35.04.92.47,1.35,1.26,1.31,2.47,3.01,5.63,4.28,7.66.65,1,1.35,1.56,1.97,1.95,1.31.82,5.02,1.04,7.07.91.26-.22.48-1.52.39-1.69-2.71-.39-3.97-.74-5.2-2.38-1.75-2.38-3.93-5.89-5.24-8.66-.04-.04.09-.22.18-.3,3.15-1.07,6.42-3.45,6.42-7.68,0-3.54-2.62-6.39-7.51-6.39-1.66,0-2.79,0-6.33.04-1.53,0-5.06-.13-5.85-.13-.22,0-.43,1.38-.35,1.69h0Zm15.77,5.69c0,3.02-1.83,4.75-4.06,5.53-1.48.47-3.05.68-5.06.6-.18,0-.31-.13-.26-.3.44-3.07,1.31-8.47,1.66-10.24.05-.22.22-.65.48-.77.31-.18,1.18-.22,1.4-.22,3.93,0,5.85,1.81,5.85,5.39h0Zm12.49-5.69c1.31.18,2.27.22,2.97.43.87.26.96.69.83,1.82-.22,2.03-.57,4.29-1.22,8.27-1.09,7.15-1.62,9.7-1.92,10.96-.22.91-.57,1.56-1.96,1.82-.61.13-1.4.26-2.53.35-.22.26-.31,1.43-.17,1.69.79,0,4.19-.13,6.51-.13,2.05,0,4.89.13,5.98.13.26-.26.44-1.35.31-1.69-1.27-.17-2.01-.26-2.62-.39-1.35-.34-1.4-.99-1.26-2.34.17-1.52.83-5.67,1.48-9.7.57-3.81,1.13-7.02,1.53-8.92.31-1.26.66-1.74,1.75-1.99.65-.13,1.66-.22,2.49-.35.26-.26.44-1.43.17-1.69-1.35,0-3.84.13-6.03.13-2.31,0-5.11-.13-6.03-.13-.31.21-.44,1.34-.26,1.73h0Zm16.9,23.6c-.26.18-.39,1.43-.18,1.74,1.14-.05,4.85-.13,6.9-.13,3.1,0,5.42.09,7.16.13.26-.18.48-1.43.26-1.74-1.4-.17-2.75-.35-3.45-.56-.92-.26-1.09-1-1.05-1.78.17-2.38,2.01-13.81,3.06-20.27,0-.13.31-.39.39-.44.66-.04,3.93-.04,5.55.05.22,0,1.18.17,1.27,1.13.18.73.22,2.16.18,4.03.17.26,1.66.22,1.88,0,.61-2.77,1.44-5.76,2.14-7.53,0-.13-.26-.43-.39-.43-1.57.48-3.01.61-4.54.61h-15.28c-1.18,0-2.32-.26-3.5-.69-.13-.04-.48,0-.52.13-.39,2.04-1.62,5.55-2.31,7.41.08.26,1.26.86,1.75.69,1.13-1.95,1.92-3.29,2.62-4.12.83-.91,1.66-1.12,2.14-1.17.92-.09,3.97-.13,4.54-.04.13.04.27.22.22.39-1.05,6.93-2.27,14.34-3.14,18.97-.35,2.04-.66,2.95-2.23,3.21-.7.17-2.14.3-3.45.43h0Zm19.26-.02c3.45-.43,3.97-.65,6.03-4.14,2.71-4.55,8.56-15.59,9.91-18.36.57-1,.96-2.12,1.18-2.77.43.04.96.09,1.53.09s1.09-.04,1.53-.09c.04.65.26,1.77.35,2.51.39,2.42,2.71,15.19,3.54,19,.7,3.11,1.09,3.28,4.41,3.76.22.18.09,1.61-.22,1.74-1.04-.05-3.88-.12-5.41-.12-1.35,0-5.11.12-5.85.12-.13-.22-.08-1.52.13-1.73.92-.13,1.84-.26,2.53-.47.57-.22.7-.74.65-1.04-.22-1.73-.79-4.89-1.18-6.58-.05-.21-.22-.3-.35-.3-.74-.04-2.66-.04-4.15-.04q-2.66,0-3.14.04c-.22,0-.52.3-.57.39-1.31,2.46-2.57,4.8-3.1,6.22-.26.69,0,1.17.79,1.39l2.4.39c.17.22,0,1.44-.18,1.74-1,0-3.23-.12-5.89-.12s-4.28.12-5.07.12c-.13-.26-.08-1.52.13-1.74h0Zm16.81-20.08c-1.09,2.38-3.19,6.45-4.46,9.1,0,.17,0,.26.09.3.48.04,2.1.04,3.27.04,1.01,0,2.14,0,2.67-.04.13,0,.31-.18.26-.39-.48-2.99-1.18-7.27-1.57-9.01-.05-.04-.17,0-.26,0h0Zm16.9,13.34c-.22-.17-1.61.13-1.74.39-.13,1.6-.05,6.15.26,6.67,1.18.87,4.15,2.08,7.43,2.08,6.73,0,10.09-4.16,10.09-8.18,0-2.55-1.4-4.29-3.01-5.54-1.35-1.13-4.11-2.69-5.76-3.99-1.31-1.09-2.27-2.43-2.27-4.29,0-2.17,1.36-4.63,4.63-4.63,1.13,0,2.53.26,3.36.87.96.73,1.35,2.03,1.31,4.93.08.18,1.53.22,1.7,0,.44-2.55,1.14-5.02,1.66-6.49-.65-.09-1.4-.22-2.49-.48-.92-.21-2.88-.56-4.72-.56-4.97,0-9.21,2.51-9.21,7.84,0,3.42,2.36,5.41,5.5,7.67,4.06,2.86,5.16,4.03,5.16,6.37,0,3.16-2.53,4.55-4.93,4.55-1.83,0-3.36-.52-4.46-1.39-1.4-1.13-2.05-3.16-2.49-5.8h0Zm27.86,6.75c-.31.22-.43,1.52-.17,1.74,1.79,0,4.06-.13,6.94-.13,8.34,0,10.83.22,13.76.13.57.04,1.22-.48,1.62-1.13.96-1.65,2.05-4.03,2.44-5.63-.18-.26-1.4-.82-1.66-.74-1.14,1.86-1.87,2.99-2.71,3.94-.87.95-1.79,1.26-2.92,1.26-3.01,0-6.73.04-7.6-.17-.53-.13-.79-.69-.75-1.39.26-1.82.83-5.59,1.31-8.36.05-.18.26-.3.31-.3,1.92,0,4.59,0,5.98.13.61.05,1.05.52,1.14,1.21.08.61.22,1.56.22,2.3.22.17,1.62.22,1.88-.04.22-1.3.39-2.94.65-4.5.31-1.65.79-3.64,1.05-4.59-.26-.26-1.88-.26-2.05-.09-.26.74-.57,1.47-.79,1.95-.43.91-1.05,1.3-1.66,1.34-1.62.04-3.93.04-6.07.04-.09,0-.18-.08-.18-.26l1.44-8.84c.04-.26.35-.86.79-.95,1.05-.13,5.11-.09,6.24,0,1.26.08,1.79.3,2.01,1.34.13.74.26,1.86.31,3.16.13.13,1.62.13,1.88-.04.39-2.34,1.09-5.37,1.4-6.41,0-.09-.09-.35-.17-.39-.92.22-3.63.22-5.33.22h-8.08c-2.4,0-5.5-.13-6.73-.13-.22.17-.53,1.51-.31,1.73,1.09.13,2.27.3,2.88.48.96.3,1.05.69.96,2.12-.13,1.6-2.53,16.2-2.97,18.15-.31,1.43-.79,2.12-1.88,2.34-.78.21-1.66.39-3.19.52h0Zm30.97,0c-.26.18-.39,1.43-.18,1.74,1.14-.05,4.85-.13,6.9-.13,3.1,0,5.42.09,7.16.13.26-.18.48-1.43.26-1.74-1.4-.17-2.75-.35-3.45-.56-.92-.26-1.09-1-1.05-1.78.17-2.38,2.01-13.81,3.06-20.27,0-.13.31-.39.39-.44.66-.04,3.93-.04,5.55.05.22,0,1.18.17,1.27,1.13.18.73.22,2.16.18,4.03.17.26,1.66.22,1.88,0,.61-2.77,1.44-5.76,2.14-7.53,0-.13-.26-.43-.39-.43-1.57.48-3.01.61-4.54.61h-15.29c-1.18,0-2.32-.26-3.5-.69-.13-.04-.48,0-.52.13-.39,2.04-1.62,5.55-2.31,7.41.08.26,1.26.86,1.75.69,1.13-1.95,1.92-3.29,2.62-4.12.83-.91,1.66-1.12,2.14-1.17.92-.09,3.97-.13,4.54-.04.13.04.26.22.22.39-1.05,6.93-2.27,14.34-3.14,18.97-.35,2.04-.66,2.95-2.23,3.21-.7.17-2.14.3-3.45.43h0Zm34.93-23.6c.79.13,1.44.18,2.18.39,1.44.39,1.79,1.3,2.27,3.99.57,3.12,1.7,10.01,2.57,15.89l.7,5.24c.13,0,.61-.04,1.53-.04.83,0,1.4.04,1.57.04.74-1.38,2.18-3.99,3.76-6.58,3.41-5.68,6.76-11.78,8.73-14.9,1.31-2.08,1.83-2.82,3.32-3.42.57-.26,1.44-.43,2.45-.61.31-.22.35-1.47.26-1.73-1.27,0-2.18.13-5.06.13-3.41,0-5.11-.13-5.81-.13-.35.26-.48,1.3-.35,1.73.96.18,1.7.26,2.4.43,1.27.3,1.4.73.61,2.51-1.57,3.33-7.77,14.33-9.69,17.45-.09.13-.22.09-.26,0-.44-2.17-2.4-13.82-3.01-18.54-.09-.6.04-1.12.87-1.34.61-.18,1.4-.3,2.57-.48.26-.22.39-1.56.18-1.82-.66.04-2.54.17-5.98.17-1.88,0-4.1-.13-5.5-.13-.31.09-.48,1.43-.31,1.73h0Zm31.05,0c-.18-.39-.04-1.52.26-1.73.92,0,3.71.13,6.03.13,2.18,0,4.67-.13,6.02-.13.26.26.09,1.43-.17,1.69-.83.13-1.83.22-2.49.35-1.09.26-1.44.74-1.74,1.99-.39,1.9-.96,5.11-1.53,8.92-.65,4.03-1.31,8.19-1.48,9.7-.13,1.34-.09,1.99,1.27,2.34.61.13,1.35.22,2.62.39.13.35-.05,1.43-.31,1.69-1.09,0-3.93-.13-5.98-.13-2.31,0-5.72.13-6.51.13-.13-.26-.05-1.43.17-1.69,1.13-.09,1.92-.21,2.53-.35,1.4-.26,1.75-.91,1.96-1.82.31-1.26.83-3.81,1.92-10.96.66-3.98,1.01-6.23,1.22-8.27.13-1.13.04-1.56-.83-1.82-.7-.21-1.66-.26-2.97-.43h0Zm16.9,23.6c-.26.18-.39,1.43-.18,1.74,1.14-.05,4.85-.13,6.9-.13,3.1,0,5.41.09,7.16.13.26-.18.48-1.43.26-1.74-1.4-.17-2.75-.35-3.45-.56-.92-.26-1.09-1-1.05-1.78.17-2.38,2.01-13.81,3.06-20.27,0-.13.31-.39.39-.44.65-.04,3.93-.04,5.54.05.22,0,1.18.17,1.27,1.13.18.73.22,2.16.18,4.03.17.26,1.66.22,1.88,0,.61-2.77,1.44-5.76,2.14-7.53,0-.13-.26-.43-.39-.43-1.57.48-3.01.61-4.54.61h-15.29c-1.18,0-2.32-.26-3.5-.69-.13-.04-.48,0-.52.13-.39,2.04-1.62,5.55-2.31,7.41.09.26,1.27.86,1.75.69,1.14-1.95,1.92-3.29,2.62-4.12.83-.91,1.66-1.12,2.14-1.17.92-.09,3.97-.13,4.54-.04.13.04.26.22.22.39-1.05,6.93-2.27,14.34-3.15,18.97-.35,2.04-.66,2.95-2.23,3.21-.7.17-2.14.3-3.45.43h0Zm19.26-.02c3.45-.43,3.97-.65,6.02-4.14,2.71-4.55,8.56-15.59,9.92-18.36.56-1,.96-2.12,1.18-2.77.43.04.96.09,1.53.09s1.09-.04,1.53-.09c.05.65.26,1.77.35,2.51.39,2.42,2.71,15.19,3.54,19,.7,3.11,1.09,3.28,4.41,3.76.22.18.08,1.61-.22,1.74-1.05-.05-3.88-.12-5.42-.12-1.35,0-5.11.12-5.85.12-.13-.22-.09-1.52.13-1.73.92-.13,1.83-.26,2.53-.47.57-.22.7-.74.65-1.04-.22-1.73-.79-4.89-1.18-6.58-.04-.21-.22-.3-.35-.3-.74-.04-2.66-.04-4.15-.04q-2.66,0-3.15.04c-.22,0-.52.3-.57.39-1.31,2.46-2.57,4.8-3.1,6.22-.26.69,0,1.17.79,1.39l2.4.39c.17.22,0,1.44-.18,1.74-1,0-3.23-.12-5.89-.12s-4.28.12-5.07.12c-.13-.26-.08-1.52.13-1.74h0Zm16.81-20.08c-1.09,2.38-3.19,6.45-4.46,9.1,0,.17,0,.26.09.3.48.04,2.1.04,3.27.04,1.01,0,2.14,0,2.67-.04.13,0,.31-.18.26-.39-.48-2.99-1.18-7.27-1.57-9.01-.04-.04-.17,0-.26,0Z"/>
  <path class="cls-2" d="m257.39,117.79l1.98-18.49c6.96,10.1,7.97,19.88,5.34,26.9-2.4-2.98-4.83-5.79-7.32-8.41h0Zm-55.27-22.8l13.57,6.04c-1.02,2.26-1.88,4.81-2.68,7.14-2.21-1.99-4.41-3.81-6.61-5.47-1.55-2.29-2.99-4.86-4.28-7.71h0ZM236.88,1.94c-16.83,11.16-14.76,26.9-3.61,33.75l-12.47,10.89,2.93-15.55-9.98,13.64-.14-13.51c-11.61,14.33-8.46,26.27.18,31.32l-2.2,16.89-11.23-17.04c-6.68,20.37,7.02,31.26,20.38,29.8l.49,2.68c.76-.15,1.59-.09,2.48.26.54.21,1.07.42,1.6.63l-3.75-3.68c9.7-1.43,18.99-9.44,19.91-25.13l-13.74,14.53,4.58-17.92c6.62-2.41,13.3-7.74,18.45-16.8l-16.07,7.77,8.97-13.86-13.7,9.8,4.05-14.31c8.72,4.89,22.52,4.53,37.15-6.92l-22.88,3.7,25.23-11.57-20.55,3.9,22.92-21.23-29.91,13.53,7.04-17.52-18.48,21.24,2.37-19.3h0Zm-4.85,61.67l-11.13,15.85-6.87-16.85c4.86,2.73,11.39,3.33,18,1h0Zm145.21,34.6c1.05-1.07,2.1-2.2,3.15-3.37.23-.59.45-1.18.91-1.57-6.9,3.44-13.8,7.05-20.7,10.67l.02.05v.02s.03.07.03.07l.03.07.03.07.03.07v.02s.03.05.03.05l.03.07.03.07.03.07.02.05v.02s.03.07.03.07l.03.07.03.07.03.07v.02s.03.05.03.05l.03.07.03.07.03.07.02.06h0s.03.09.03.09l.03.07.03.07.03.07v.02s.03.05.03.05l.02.07.03.07.03.07.02.06h0s.03.08.03.08l.03.07.02.07.03.07v.03s.02.05.02.05l.03.07.02.07.03.07.02.06h0s.02.08.02.08l.03.07.02.07.02.07v.03s.03.04.03.04l.02.07.02.07.02.07.02.07h0s.02.08.02.08l.02.07.02.07.02.07v.03s.02.04.02.04l.02.07.03.07.02.07.02.07h0s.02.07.02.07l.02.07.02.07.02.07v.03s.02.04.02.04l.02.07.02.07.02.07.02.07.28.81c4.96-4.54,9.88-8.22,14.77-11.14h0Zm-16.81,5.3c-.16-.41-.32-.81-.48-1.21l-.1-.24h0l-.1-.24c-.2-.47-.41-.93-.63-1.38l-.1-.2v-.02s-.12-.22-.12-.22l-.03-.05-.09-.17-.02-.04-.08-.15-.03-.06-.09-.17-.11-.21-.1-.17-.03-.06-.08-.14-.07-.11-.08-.13-.12-.19-.02-.03-.03-.05-.1-.15-.06-.09-.1-.15-.05-.08c-.1-.14-.19-.27-.29-.4l-.06-.08-.08-.11-.07-.09v-.02s-.14-.16-.14-.16h0s-.02-.03-.02-.03l-.13-.15-.06-.07-.09-.1-.07-.08-.11-.11-.05-.05h0l-.05-.04-.11-.1-.07-.06-.11-.1-.06-.05s-.1-.08-.15-.12h-.02s0-.02,0-.02c-.06-.04-.12-.09-.18-.13l-.04-.02-.14-.09-.06-.04s-.1-.06-.15-.09l-.03-.02h-.02c-.06-.04-.11-.07-.17-.1l-.06-.03-.14-.07-.05-.02c-.05-.02-.11-.05-.16-.06l-.05-.02c-.06-.02-.13-.05-.19-.07h-.05s-.15-.06-.15-.06l-.06-.02c-.05-.01-.11-.03-.17-.04h-.04c-.07-.02-.13-.03-.2-.04h-.05c-.05-.01-.11-.02-.16-.02h-.06s-.16-.01-.16-.01h-.06c-.07,0-.14,0-.21,0h-.03s-.18.02-.18.02h-.07s-.15.03-.15.03h-.07c-.07.02-.14.04-.22.05h0s-.03,0-.03,0c-.06.01-.13.03-.2.05l-.07.02-.16.05-.08.03c-.08.03-.15.05-.23.08-.28.11-.57.22-.85.33l-.08.03-.06.02c-.28.11-.57.22-.85.34h-.02s-.01.01-.01.01c-.3.12-.59.24-.89.37h-.02s-.04.02-.04.02c-.28.11-.55.23-.82.35h0s-.04.02-.04.02l-.1.04c-.23.1-.46.2-.69.3l-.21.09-.64.29-.32.15-.46.22-.13.06-.27.13-.13.06-.13.06-.13.06-.13.06h-.02s-.38.19-.38.19l-.13.06-.26.13-.13.06-.26.13-.13.07-.13.06-.13.07-.13.07c3.12-9.1,7.7-17.54-1.5-32.97,11.08,5.73,8.81,11.44,15.58,19.33-3.37-14.97-11.72-26.41-24.61-34.9,11.32,1.99,20.36,10.67,22.4,9.69-4.51-11.63-22.38-19.34-33.46-23.3,6.56,1,13.58.02,22.41,2.01-9.95-4.94-20.58-9.29-35.75-11.68,9.73.02,19.46,2,28.97,2.02-11.77-3.17-23.53-8.31-35.52-11.68,9.96-.97,19.7.23,26.71,1.82-10.86-5.14-21.49-11.07-31.21-17.39,12.68.22,28.28,9.31,42.3,19.38-2.94-4.54-8.12-14.79-11.06-19.32,5.88,5.92,11.75,11.64,17.63,17.36-.67-5.71-1.34-11.43-2.01-17.34,6.09,11.83,9.01,23.45,11.03,34.88.92-9.06,1.62-18.11,2.31-27.17,5.4,15.57,5.6,31.13,4.21,46.48,2.28-7.68,4.56-15.35,6.83-23.23,4.96,12.81.86,27.38-4.61,42.73,6.13-10.23,11.58-17.7,15.66-23.21-2.75,15.35-8.21,29.72-17.96,42.51,7.03-7.27,14.06-12.78,20.18-17.29-4.73,8.94-11.69,17.7-20.89,25.61h0Zm-19.95-3.12c-.33-6.12,1.59-12.15-1.5-18.83-1.33,10.16-3.42,17.01-6.22,23.61l.03-.02.56-.38.12-.08.12-.08h0l.12-.08.51-.34.2-.13.12-.08.36-.23.12-.08.24-.15.12-.08.36-.23.12-.08.21-.13.03-.02.12-.07.39-.24.22-.13.12-.07.24-.15.12-.07h0s.48-.29.48-.29l.12-.07.12-.07.12-.07.47-.28h.02s.12-.08.12-.08l.12-.07.12-.07.37-.21.12-.07.13-.07.12-.07.62-.35.13-.07h0Zm-13.04,8.77c.63-2.47,1-4.73.41-6.15-.68,2.74-1.46,5.35-2.39,7.79l.15-.13.03-.03.46-.39.03-.03.03-.03.03-.03.03-.03.03-.03.03-.03.09-.08.03-.03.06-.05.03-.03.03-.03.03-.02.03-.03.03-.03.03-.03h0s.03-.03.03-.03l.03-.02.03-.03.56-.46.03-.03.03-.02.03-.02h0s.03-.03.03-.03h0Zm-17.28,17.42c.47-4.08-.23-8.27-.23-10.01-.93,4.67-4.28,10.2-8.39,15.24.85.87,1.59,1.91,2.21,3.06l.5-.67.1-.13.04-.05.06-.08.1-.13.1-.13.2-.27.1-.13.08-.11.02-.03.1-.13.4-.53.1-.13.02-.02.08-.11.1-.13.4-.52.06-.07.04-.06.1-.13.49-.64h0s.5-.65.5-.65l.1-.13.04-.05.06-.08.1-.13.48-.61.02-.03.61-.76v-.02s.1-.11.1-.11l.51-.63.05-.07.05-.06.1-.13.5-.61h0Zm-75.5-26.48l1.71-13.35,6.86,17.74,4.87-19.38c6.68,10.59,6.18,19.58,1.83,25.57-4.7-4.05-9.73-7.56-15.28-10.58Z"/>
  <g>
    <path class="cls-1" d="m222.2,135.34c-.56-.14-1.12-.26-1.66-.37.73.18,1.48.4,2.24.67l-.57-.29Z"/>
    <path class="cls-1" d="m204.14,134.09c-.27.88-.45,1.66-.59,2.33.14-.67.32-1.46.59-2.33Z"/>
    <path class="cls-1" d="m203.32,137.95c0-.25.06-.67.17-1.24-.11.59-.17,1-.17,1.24Z"/>
    <path class="cls-1" d="m249,149.11l-3.84-1.97s.02.01.03.02l3.8,1.95Z"/>
    <path class="cls-1" d="m220.16,160.73c-9.17-3.17-14.08-9.74-16-15.49-1.98-1.41-3.96-2.87-5.82-4.66-46.82-35.48-63.92-1.44-99.24,6.83-39.44,16.04-61.24-6.52-81.26-22.82.01,0,.02,0,.03,0l-.14-.04-.29-.09-.33-.11-.23-.08-.38-.12-.18-.06-.08-.03-.48-.16-.48-.16-.08-.03-.53-.18h-.03s-.55-.19-.55-.19h-.02s-.52-.19-.52-.19l-.07-.02-.47-.16-.54-.19-.17-.06-.37-.13-.22-.08-.31-.11-.27-.1-.26-.09-.49-.18-.11-.04-.97-.35-.45-.17-.07-.02-.52-.19-.51-.19h-.03s-.48-.19-.48-.19l-.08-.03-.43-.17-.12-.05-.38-.15-.17-.06-.33-.13h-.03c-.47-.2-.94-.38-1.4-.57l-.14-.06-.39-.16h0s-.38-.16-.38-.16l-.1-.04-.05-.02-.43-.17-.46-.2h-.01s-.47-.21-.47-.21h-.03s-.43-.2-.43-.2c-.47-.2-.93-.41-1.38-.61,3.59,6.87,33.73,64.14,84.35,52.61,22.14-8.31,47.36-20.43,72.79-24.23,24.85-.42,40.67,19.16,62.89,22.8,18.37,3.19,31.05-3.43,38.95-9.58-11.86,2.41-29.88,4.27-38.82,1.18Z"/>
    <polygon class="cls-1" points="265.78 151.43 265.78 151.44 265.79 151.73 265.78 151.43"/>
    <path class="cls-1" d="m102.12,131.93c54.9-28.48,66.93-33.19,103.72-2.8l-1.7,4.96,8.84-25.83.03-.08c-39.65-35.69-77.1-16.37-112.07,5.99-36.89,23.6-69.31-22.59-70.59-22.5l3.51,25.43c4.36,3.7,31.67,27.21,68.26,14.83Z"/>
    <path class="cls-1" d="m257.19,153.32s.08.04.11.05l2.66,1.37-2.77-1.42s0,0,0,0Z"/>
  </g>
  <g>
    <path class="cls-2" d="m369.55,130.26c37.7-31.17,49.43-26.59,104.71,2.35,35.9,12.29,63.42-11,68.6-15.49l3.23-24.47c-2.31,1.44-34.41,45.53-70.58,22.21-35.17-22.68-72.88-42.27-113.03-5.51l8.47,25.05-1.4-4.13Z"/>
    <path class="cls-2" d="m559.42,124.55c-1.37,1.24-3.38,2.88-6.46,5.14-14.28,10.46-38.93,33.54-75.74,18.41-35.3-8.41-52.26-42.51-99.22-7.2-2.27,2.17-4.64,4.04-7.08,5.66.02-.04.02-.07.03-.11-2.29,5.51-7.43,11.55-16.13,14.53-8.53,2.91-25.27,1.3-37.09-.98,7.91,6.07,20.43,12.45,38.48,9.37,22.23-3.56,38.13-23.09,62.97-22.57,25.41,3.89,50.59,16.11,72.7,24.5,50.25,11.64,80.54-44.71,84.47-52.16-7.12,3.03-16.93,5.42-16.93,5.42Z"/>
    <path class="cls-2" d="m372.25,141.47c-.03.31-.08.62-.14.94.06-.33.1-.63.14-.94Z"/>
  </g>
  <g>
    <path class="cls-2" d="m266.58,156.32l-.03-.08h0s-.05-.17-.05-.17l-.03-.08-.02-.08-.05-.17-.02-.08-.02-.08-.04-.17-.02-.08-.02-.08-.02-.08-.02-.08-.02-.08-.02-.09h0s-.02-.08-.02-.08l-.02-.08-.02-.09-.02-.09-.02-.08-.02-.09-.02-.09v-.03s-.03-.14-.03-.14l-.02-.09-.02-.15v-.03s0-.01,0-.01v-.08s-.04-.18-.04-.18v-.09s-.02-.09-.02-.09v-.09s-.02-.09-.02-.09v-.02s-.01-.07-.01-.07v-.09s-.03-.18-.03-.18v-.06s0-.03,0-.03v-.09s-.03-.19-.03-.19v-.08s-.02-.27-.02-.27v-.04s0,0,0,0c0-.11-.01-.22-.02-.32v-.04c0-.11,0-.21-.01-.33h0c0-.13,0-.25,0-.37v-4.3c-1.42-.5-2.71-1-3.24-1.28-12.66-6.67-25.04-13.7-37.7-20.37-5.35-2.62-11.67-2.3-17.68.14l-3.02,8.82c-.66,2.18-.91,3.97-.82,4.12.1.16.66-.65,1.88-1.34,3.03-1.72,9.31-3.48,17-1.53l37.77,19.41c2.01,1.03,4.6,1.75,6.72,1.9l-.03-.08-.08-.24Z"/>
    <path class="cls-2" d="m223.7,95.06c-5.61-2.16-8.43,6.5-10.72,13.2l-5.2,15.19,2.96-8.1c5.89-16.14,39.61,14.43,55.35,24.1h0s0-.04,0-.04l.05-.25v-.03s.01-.04.01-.04l.06-.26v-.06s.08-.27.08-.27l.02-.06.07-.28v-.03s.09-.3.09-.3v-.03s.09-.27.09-.27v-.03s.02-.02.02-.02c.03-.09.06-.19.09-.28h0s0-.01,0-.01l.02-.05.07-.2.02-.07h0s0-.02,0-.02l.1-.27h0s.1-.28.1-.28l.02-.05.11-.25.02-.05.1-.23.04-.08.11-.23.02-.04.11-.23.02-.03v-.02s.13-.23.13-.23v-.02s.01-.01.01-.01l.03-.06.08-.15.03-.06h0s.02-.04.02-.04l.11-.19.02-.04.02-.02.12-.21.02-.03.03-.04.11-.18.05-.08.12-.19.04-.06.13-.19.05-.07.13-.18.05-.07.14-.18h0s.16-.22.16-.22l.02-.03h0s.03-.04.03-.04l.13-.15.05-.06c-13.09-17.74-26.21-29.74-45.7-37.24Z"/>
  </g>
  <g>
    <path class="cls-2" d="m305.57,141.39c13.6-6.32,52.54-43.22,58.84-25.77l2.92,8.08-5.13-15.18c-2.27-6.7-5.05-15.37-10.67-13.24-19.99,7.61-34.27,21.13-47.77,39.58,1.18,2.22,1.87,4.9,1.86,7.78,0-.42-.01-.84-.04-1.26Z"/>
    <path class="cls-2" d="m370.94,134.39l-2.99-8.84c-6-2.46-12.32-2.8-17.68-.21-12.69,6.62-25.09,13.62-37.78,20.24-.98.51-4.64,1.8-6.89,2.39v3.16c0,1.74-.27,3.41-.73,4.95,1.62,1.33,6.74.5,10.17-1.25,11.06-5.65,42.98-25.17,54.87-18.45,1.42.8,2.16,2.39,2.4,2.49-.24-1.78-.32-1.33-1.37-4.49Z"/>
  </g>
  <path class="cls-2" d="m294.78,128.75l-18.1-.03c-5.97-.01-10.87,6.23-10.89,13.87l-.02,8.49c-.02,7.64,4.86,13.89,10.83,13.9l18.1.03c5.97.01,10.87-6.23,10.89-13.87l.02-8.49c.02-7.64-4.86-13.89-10.83-13.9Zm-3.64,36.2l-10.96-.02.07-36.2,10.96.02-.07,36.2Z"/>
  <path class="cls-3" d="m304.94,156.15c-.12-.06-.24-.12-.35-.19,1.34,2.64,36.48,9.72,50.24,5.02,13.76-4.7,18.65-17.11,17.37-22.88h0c.04.21.08.46.12.79-.24-.1-.98-1.69-2.4-2.49-11.89-6.71-43.82,12.8-54.87,18.46-3.38,1.73-8.4,2.55-10.1,1.3Z"/>
</svg>